<?xml version="1.0" encoding="UTF-8"?>
<svg id="_Слой_10" data-name="Слой 10" xmlns="http://www.w3.org/2000/svg" viewBox="0 0 192 192">
  <defs>
    <style>
      .cls-1 {
        fill: #24292f;
        fill-rule: evenodd;
      }
    </style>
  </defs>
  <path class="cls-1" d="M96.08,2.35C43.09,2.35,.25,45.5,.25,98.89c0,42.68,27.45,78.8,65.53,91.58,4.76,.96,6.5-2.08,6.5-4.63,0-2.24-.16-9.91-.16-17.9-26.66,5.76-32.21-11.51-32.21-11.51-4.28-11.19-10.63-14.06-10.63-14.06-8.72-5.91,.64-5.91,.64-5.91,9.68,.64,14.76,9.91,14.76,9.91,8.57,14.7,22.37,10.55,27.92,7.99,.79-6.23,3.33-10.55,6.03-12.95-21.26-2.24-43.63-10.55-43.63-47.63,0-10.55,3.81-19.18,9.84-25.89-.95-2.4-4.28-12.31,.95-25.57,0,0,8.09-2.56,26.34,9.91,7.81-2.11,15.87-3.19,23.96-3.2,8.09,0,16.34,1.12,23.96,3.2,18.25-12.47,26.34-9.91,26.34-9.91,5.24,13.27,1.9,23.18,.95,25.57,6.19,6.71,9.84,15.34,9.84,25.89,0,37.08-22.37,45.23-43.79,47.63,3.49,3.04,6.5,8.79,6.5,17.9,0,12.95-.16,23.34-.16,26.53,0,2.56,1.75,5.6,6.5,4.64,38.08-12.79,65.53-48.91,65.53-91.59,.16-53.39-42.84-96.54-95.67-96.54Z"/>
</svg>