<?xml version="1.0" encoding="UTF-8"?>
<svg id="_Слой_10" data-name="Слой 10" xmlns="http://www.w3.org/2000/svg" viewBox="0 0 192 192">
  <defs>
    <style>
      .cls-1 {
        fill: #fff;
      }

      .cls-2 {
        fill: #e6e6e6;
      }

      .cls-3 {
        fill: #f8bf11;
      }

      .cls-4 {
        fill: #202020;
      }
    </style>
  </defs>
  <path id="path3" class="cls-4" d="M168.47,151.64h0c-1.42-1.56-2.13-4.32-2.84-7.44-.71-3-1.54-6.24-4.14-8.4h0c-.47-.48-1.06-.84-1.54-1.08-.59-.36-1.06-.6-1.65-.72,3.54-10.2,2.25-20.39-1.42-29.63-4.49-11.28-12.29-21.11-18.2-27.95-6.62-8.04-13.12-15.71-13-26.99,.24-17.27,2.01-49.18-29.66-49.18-1.3,0-2.6,0-4.02,.12-35.33,2.76-26,38.51-26.47,50.5-.59,8.76-2.48,15.71-8.74,24.23-7.44,8.4-17.84,22.07-22.69,36.23-2.36,6.72-3.43,13.56-2.36,20.03-.35,.24-.59,.6-.95,.84-2.13,2.28-3.78,4.92-5.55,6.72-1.65,1.56-4.02,2.16-6.62,3.12s-5.44,2.28-7.21,5.4h0c-.83,1.44-1.06,3-1.06,4.68,0,1.44,.24,3,.47,4.44,.47,3,.95,5.88,.35,7.8-2.13,5.4-2.36,9.12-.83,11.88,1.42,2.76,4.49,3.96,7.8,4.56,6.74,1.32,15.95,1.08,23.16,4.68l.59-1.08-.59,1.08c7.8,3.84,15.6,5.28,21.86,3.84,4.49-.96,8.27-3.6,10.16-7.56,4.84,0,10.28-2.04,18.91-2.52,5.79-.48,13.12,2.04,21.51,1.56,.24,.84,.59,1.68,.95,2.52h0c3.31,6.24,9.34,9.12,15.72,8.64,6.5-.48,13.35-4.08,18.91-10.44l-1.06-.84,1.06,.84c5.32-6.12,14.06-8.76,19.85-12.12,2.95-1.68,5.32-3.84,5.44-6.84,.24-3-1.65-6.48-6.03-11.04l-.12,.12Z"/>
  <path id="path5" class="cls-3" d="M171.77,162.56c0,1.92-1.54,3.24-4.14,4.8-5.32,3-14.65,5.64-20.56,12.6-5.2,5.88-11.46,9.12-17.02,9.6-5.55,.48-10.4-1.8-13.23-7.2h0c-1.77-3.24-1.06-8.28,.47-13.56,1.54-5.28,3.54-10.8,3.9-15.23h0c.35-5.76,.59-10.68,1.65-14.52,.95-3.84,2.6-6.48,5.32-7.92,.12,0,.24-.12,.35-.24,.35,4.92,2.84,9.96,7.33,11.04,4.96,1.2,12.05-2.76,15.01-6.12h1.77c2.6,0,4.84,0,7.09,1.92h0c1.77,1.44,2.6,4.08,3.31,7.08,.71,3,1.3,6.24,3.43,8.52h0c4.14,4.44,5.44,7.32,5.32,9.24Z"/>
  <path id="path7" class="cls-3" d="M71.69,176.59h0c-.47,6-4.02,9.24-9.45,10.44-5.44,1.2-12.76,0-20.09-3.72h0c-8.15-4.08-17.72-3.72-23.87-4.92-3.07-.6-5.08-1.56-6.03-3.24-.95-1.68-.95-4.8,1.06-9.84h0c.95-2.88,.24-6-.24-9s-.71-5.64,.35-7.56h0c1.3-2.52,3.31-3.36,5.79-4.2,2.48-.84,5.32-1.56,7.68-3.72h0c2.13-2.16,3.66-4.8,5.55-6.72,1.54-1.56,3.19-2.64,5.55-2.64h1.3c3.19,.48,5.91,2.52,8.51,6l7.68,13.32h0c2.01,4.08,6.38,8.52,9.93,13.08,3.66,4.56,6.5,9.12,6.14,12.72h.12Z"/>
  <path id="path9" class="cls-3" d="M109.86,52.08c-.59-1.2-1.89-2.28-4.02-3.12h0c-4.49-1.8-6.38-1.92-8.86-3.48-4.02-2.52-7.33-3.36-10.16-3.36-1.42,0-2.72,.24-3.9,.6-3.43,1.08-5.55,3.48-6.97,4.68h0c-.24,.24-.59,.48-1.54,1.08-.83,.6-2.13,1.56-4.02,2.88-1.65,1.2-2.25,2.76-1.65,4.56,.59,1.8,2.36,3.96,5.79,5.76h0c2.13,1.2,3.54,2.76,5.08,3.96,.83,.6,1.65,1.2,2.72,1.56,1.06,.48,2.25,.72,3.78,.84,3.54,.24,6.14-.84,8.39-2.04,2.25-1.32,4.25-2.76,6.5-3.48h0c4.61-1.32,7.92-4.2,8.86-6.72,.47-1.32,.47-2.52,0-3.72Z"/>
  <path id="path11" class="cls-4" d="M98.16,58.55c-3.66,1.8-7.92,4.08-12.41,4.08s-8.15-2.04-10.75-3.96c-1.3-.96-2.36-1.92-3.07-2.64-1.42-1.08-1.18-2.52-.59-2.4,.95,0,1.06,1.32,1.65,1.8,.83,.72,1.77,1.68,3.07,2.64,2.48,1.8,5.67,3.6,9.81,3.6s8.86-2.28,11.7-3.84c1.65-.84,3.78-2.52,5.44-3.72,1.3-.96,1.3-2.04,2.36-1.92s.24,1.2-1.18,2.52-3.9,2.88-5.79,3.84h-.24Z"/>
  <path id="path13" class="cls-1" d="M154.17,133.29h-1.65c1.3-3.84-1.54-6.6-8.86-9.84-7.68-3.24-13.83-2.88-14.77,3.6,0,.36-.12,.72-.12,1.08-.59,.24-1.18,.48-1.77,.72-3.54,1.92-5.55,5.28-6.62,9.48s-1.42,9.24-1.65,14.99h0c-.24,2.88-1.42,6.72-2.72,10.92-12.53,8.64-30.01,12.36-44.78,2.64-.95-1.56-2.13-3-3.31-4.56-.71-.96-1.54-1.92-2.25-2.88,1.54,0,2.84-.24,3.9-.72,1.3-.6,2.25-1.44,2.72-2.64,.95-2.28,0-5.64-2.84-9.36-2.84-3.72-7.8-7.92-15.01-12.24h0c-5.32-3.12-8.27-6.96-9.57-11.16-1.42-4.2-1.18-8.76-.12-13.2,2.01-8.64,7.33-16.91,10.63-22.19,.95-.6,.35,1.2-3.43,7.8-3.31,6-9.57,20.03-1.06,30.95,.24-7.8,2.13-15.71,5.44-23.03,4.73-10.32,14.65-28.07,15.36-42.23,.35,.24,1.77,1.2,2.36,1.56q.39,.24,0,0c1.77,1.08,3.19,2.52,4.96,3.84s4.02,2.52,7.33,2.76h.95c3.43,0,6.14-1.08,8.39-2.28,2.48-1.32,4.37-2.76,6.14-3.36h0c3.9-1.2,6.97-3.24,8.74-5.64,3.07,11.4,10.04,27.83,14.53,35.87,2.36,4.32,7.21,13.32,9.22,24.23,1.3,0,2.72,.12,4.25,.48,5.44-13.44-4.61-27.83-9.1-31.79-1.89-1.68-1.89-2.52-1.06-2.4,4.96,4.2,11.46,12.6,13.83,22.07,1.06,4.32,1.3,8.88,.12,13.44,.59,.24,1.18,.48,1.77,.72,8.63,4.08,11.82,7.56,10.28,12.36h-.24Z"/>
  <path id="path4166" class="cls-2" d="M92.48,97.06c-16.31,0-30.96,14.28-36.99,35.75l.83,.48h0c6.74,4.2,11.58,8.28,14.53,12.12h0c3.19,4.08,4.49,8.04,3.19,11.52h0c-.71,1.68-2.13,3.12-3.9,3.84h0c-.24,0-.35,.12-.59,.24,1.06,1.32,2.13,2.76,3.07,4.08,13.59,8.64,29.31,5.4,41.12-2.4,1.18-3.84,2.25-7.32,2.36-9.6,.35-5.76,.59-10.92,1.77-15.35h0c1.18-4.56,3.43-8.64,7.8-10.92h0c.24-.12,.47-.24,.71-.36,0-.48,.24-.84,.35-1.32-7.09-17.39-20.09-28.19-34.27-28.19v.12Zm33.91,29.63h0Z"/>
  <path id="path15" class="cls-1" d="M110.21,39c0,2.28-.35,4.2-1.3,6.12-.47,1.08-1.06,2.04-1.77,2.88-.24,0-.47-.24-.71-.36-.95-.36-1.65-.72-2.36-.96-.71-.24-1.3-.48-1.77-.6,.35-.48,1.18-1.08,1.54-1.8,.47-1.08,.71-2.16,.71-3.36v-.12c0-1.2-.12-2.16-.47-3.24s-.83-1.92-1.54-2.52-1.42-.96-2.25-.96h0c-.83,0-1.42,.24-2.13,.84s-1.3,1.32-1.77,2.4c-.47,1.08-.71,2.16-.71,3.36v.12c0,.72,0,1.32,.12,1.92-1.65-.72-3.66-1.32-5.08-1.68,0-.6-.12-1.2-.12-1.8h0c0-2.4,.35-4.32,1.3-6.36,.95-1.92,2.01-3.36,3.54-4.56s3.07-1.68,4.96-1.68h0c1.77,0,3.31,.48,4.84,1.56,1.65,1.08,2.72,2.52,3.66,4.44,.95,1.92,1.3,3.72,1.42,6v.12h0l-.12,.24Z"/>
  <path id="path17" class="cls-1" d="M83.15,41.16s-.47,.12-.71,.24c-1.3,.48-2.25,.84-3.31,1.56v-2.04h0c0-.96-.35-1.8-.71-2.64-.35-.84-.83-1.44-1.42-1.92-.47-.48-.95-.6-1.54-.6h-.12c-.59,0-1.06,.36-1.54,.84-.47,.6-.83,1.2-1.06,2.16s-.24,1.8-.24,2.88h0c0,.96,.35,1.8,.71,2.64,.35,.84,.83,1.44,1.42,1.92,0,0,.24,.12,.24,.24-.59,.48-.95,.72-1.42,1.08-.35,.24-.71,.48-1.06,.84-.95-.84-1.65-1.92-2.36-3.24-.71-1.68-1.18-3.24-1.3-5.28h0c0-1.92,0-3.6,.59-5.4,.59-1.68,1.3-3,2.36-3.96,1.06-1.08,2.13-1.56,3.54-1.56h.35c1.18,0,2.25,.36,3.31,1.2,1.18,.96,2.13,2.04,2.84,3.72,.71,1.68,1.18,3.24,1.3,5.28h0v2.4h0l.12-.36Z"/>
  <path id="path28396-7" class="cls-4" d="M89.18,45.84s.95,.36,1.42,.6c.35,.24,.71,.6,1.18,.6s1.06-.12,1.18-.6c0-.48-.71-.84-1.3-1.08-.71-.24-1.54-.36-2.13,0-.12,0-.35,.24-.24,.36h0l-.12,.12Z"/>
  <path id="path5461" class="cls-4" d="M84.57,45.84s-.95,.36-1.42,.6c-.35,.24-.71,.6-1.18,.6s-1.06-.12-1.18-.6c0-.48,.71-.84,1.3-1.08,.71-.24,1.54-.36,2.13,0,.12,0,.35,.24,.24,.36h0l.12,.12Z"/>
</svg>